<svg width="1074" height="192" viewBox="0 0 1074 192" fill="none" xmlns="http://www.w3.org/2000/svg">
<path d="M362.003 159.193C362.003 172.316 363.874 180.889 365.495 187.59H343.799C341.929 181.699 340.588 172.846 340.588 159.972V143.639C340.588 118.171 326.904 107.729 302.279 107.729H252.124V187.59H229.867V9.38281H312.939C349.659 9.38281 367.614 27.6182 367.614 56.296C367.614 80.1422 352.87 96.7566 333.045 101.308C349.94 106.139 362.003 114.181 362.003 140.428V159.193ZM344.298 58.1351C344.298 37.4995 333.855 27.3064 310.539 27.3064H252.124V91.0834H310.29C335.196 91.1146 344.298 78.5213 344.298 58.1351Z" fill="#323B90"/>
<path d="M499.47 146.318H519.046C516.365 166.673 500.811 191.891 456.329 191.891C410.226 191.891 389.871 160.813 389.871 120.321C389.871 80.3905 411.847 49.3125 456.329 49.3125C496.54 49.3125 519.295 76.9305 519.295 116.051C519.295 119.542 519.295 122.223 518.765 125.433H411.037C412.657 162.153 430.332 175.557 457.139 175.557C483.386 175.526 495.449 163.213 499.47 146.318ZM411.566 109.349H498.41C497.319 78.5202 481.515 65.6464 456.609 65.6464C431.142 65.6464 414.528 77.7098 411.566 109.349Z" fill="#323B90"/>
<path d="M669.916 0V187.59H648.47V161.874C639.368 180.888 622.473 191.892 597.816 191.892C555.735 191.892 536.439 161.593 536.439 120.603C536.439 79.3316 555.735 49.3134 597.816 49.3134C622.473 49.3134 639.368 60.0364 648.47 79.051V0H669.916ZM648.47 120.603C648.47 82.8228 630.515 66.7382 602.118 66.7382C571.57 66.7382 558.166 84.4125 558.166 120.603C558.166 156.512 571.57 174.467 602.118 174.467C630.515 174.467 648.47 158.383 648.47 120.603Z" fill="#323B90"/>
<path d="M815.456 53.584V187.59H794.01V153.551C785.968 177.397 770.164 191.861 744.167 191.861C710.408 191.861 695.134 174.187 695.134 139.056V53.584H716.58V136.656C716.58 166.394 729.703 174.187 750.339 174.187C778.206 174.187 794.01 149.249 794.01 104.768V53.584H815.456Z" fill="#323B90"/>
<path d="M906.851 49.3125C947.062 49.3125 967.136 71.569 969.287 102.647H949.182C945.971 80.6711 932.567 66.7374 907.63 66.7374C879.233 66.7374 861.527 82.0114 861.527 120.602C861.527 159.473 878.672 174.466 906.82 174.466C933.876 174.466 947.81 159.192 950.491 136.406H970.846C969.225 167.234 947.53 191.891 906.788 191.891C862.837 191.891 839.801 161.592 839.801 120.602C839.832 79.5801 863.429 49.3125 906.851 49.3125Z" fill="#323B90"/>
<path d="M1007.63 156.231V70.4783H982.161V58.4149L1009.5 51.7131L1017.54 23.8457H1029.07V53.5833H1073.31V70.4783H1029.07V170.165H1071.69V187.59H1040.05C1014.33 187.59 1007.63 177.677 1007.63 156.231Z" fill="#323B90"/>
<path d="M118.834 69.8867V128.52H60.2627V187.59H118.834H177.904V69.8867H118.834Z" fill="#323B90"/>
<path d="M118.834 10.3789H59.7634H0.693359V69.449V128.519C0.693359 161.156 0.693359 187.589 0.693359 187.589C33.33 187.589 59.7634 161.156 59.7634 128.519V69.449H118.834C151.47 69.449 177.904 43.0155 177.904 10.3789H118.834Z" fill="#323B90"/>
</svg>
